<svg width="32" height="31" viewBox="0 0 32 31" fill="none" xmlns="http://www.w3.org/2000/svg">
<path d="M1.7497 0.0522461H29.2916C29.7556 0.0522461 30.2006 0.236585 30.5288 0.56471C30.8569 0.892835 31.0412 1.33787 31.0412 1.80191V30.7141L24.8623 24.4985H1.7497C1.51833 24.4969 1.28953 24.4498 1.07638 24.3598C0.863229 24.2697 0.669897 24.1386 0.507425 23.9739C0.344953 23.8091 0.216523 23.614 0.129466 23.3996C0.0424088 23.1852 -0.00156958 22.9558 4.2781e-05 22.7244V1.80191C4.2781e-05 1.33787 0.184381 0.892835 0.512506 0.56471C0.84063 0.236585 1.28566 0.0522461 1.7497 0.0522461ZM24.4463 15.2364C24.969 15.2364 25.48 15.0814 25.9146 14.791C26.3492 14.5006 26.688 14.0878 26.888 13.6049C27.088 13.122 27.1404 12.5906 27.0384 12.0779C26.9364 11.5653 26.6847 11.0944 26.3151 10.7247C25.9455 10.3551 25.4746 10.1034 24.9619 10.0015C24.4493 9.89948 23.9179 9.95182 23.435 10.1518C22.9521 10.3519 22.5393 10.6906 22.2489 11.1252C21.9585 11.5598 21.8035 12.0708 21.8035 12.5935C21.8035 13.2944 22.0819 13.9667 22.5776 14.4623C23.0732 14.9579 23.7454 15.2364 24.4463 15.2364V15.2364ZM15.8816 15.2364C16.4043 15.2364 16.9152 15.0814 17.3499 14.791C17.7845 14.5006 18.1232 14.0878 18.3232 13.6049C18.5233 13.122 18.5756 12.5906 18.4736 12.0779C18.3717 11.5653 18.12 11.0944 17.7503 10.7247C17.3807 10.3551 16.9098 10.1034 16.3972 10.0015C15.8845 9.89948 15.3531 9.95182 14.8702 10.1518C14.3873 10.3519 13.9745 10.6906 13.6841 11.1252C13.3937 11.5598 13.2387 12.0708 13.2387 12.5935C13.2387 13.2902 13.5138 13.9588 14.0041 14.4537C14.4945 14.9486 15.1604 15.2299 15.8571 15.2364H15.8816ZM7.3168 15.2364C7.83951 15.2364 8.35047 15.0814 8.78509 14.791C9.2197 14.5006 9.55844 14.0878 9.75847 13.6049C9.9585 13.122 10.0108 12.5906 9.90887 12.0779C9.80689 11.5653 9.55518 11.0944 9.18558 10.7247C8.81597 10.3551 8.34506 10.1034 7.8324 10.0015C7.31973 9.89948 6.78835 9.95182 6.30543 10.1518C5.82252 10.3519 5.40976 10.6906 5.11936 11.1252C4.82896 11.5598 4.67396 12.0708 4.67396 12.5935C4.67384 13.286 4.94555 13.9509 5.43065 14.4452C5.91574 14.9394 6.57545 15.2235 7.26786 15.2364H7.3168Z" fill="white"/>
</svg>
