<svg width="158" height="33" viewBox="0 0 158 33" fill="none" xmlns="http://www.w3.org/2000/svg">
<path d="M27.6161 1.70071V32.4238H20.1158V19.7601H8.46772V32.4238H0.991898V1.70071H8.47995V13.7526H20.128V1.70071H27.6161Z" fill="white"/>
<path d="M57.1401 7.96523V32.436H49.652V29.0835C48.8572 30.2032 47.7924 31.1038 46.5565 31.7019C45.2179 32.3626 43.7423 32.698 42.2496 32.6807C40.5388 32.7127 38.85 32.2905 37.3555 31.4572C35.909 30.6044 34.7501 29.339 34.0274 27.8233C33.1926 26.0878 32.7737 24.1817 32.8039 22.2562V7.96523H40.2552V21.2773C40.1565 22.6599 40.5947 24.0272 41.4788 25.0948C41.924 25.5482 42.4613 25.9007 43.0544 26.1287C43.6475 26.3567 44.2827 26.4547 44.9169 26.4162C45.5574 26.4487 46.1975 26.3444 46.7946 26.1103C47.3916 25.8761 47.932 25.5174 48.3795 25.0581C49.2636 23.9905 49.7019 22.6232 49.6031 21.2406V7.96523H57.1401Z" fill="white"/>
<path d="M62.4625 13.5323C63.3225 11.7397 64.6658 10.2227 66.3411 9.15207C67.986 8.13215 69.8872 7.60166 71.8225 7.62265C73.3496 7.60306 74.8594 7.94696 76.2273 8.62595C77.4896 9.24382 78.5692 10.18 79.3595 11.3422V0H86.8476V32.4238H79.3595V28.9122C78.6338 30.1059 77.5921 31.0756 76.3496 31.7141C74.9544 32.4434 73.3964 32.8055 71.8225 32.7664C69.8834 32.7904 67.9791 32.2505 66.3411 31.2125C64.661 30.1261 63.3177 28.592 62.4625 26.7833C61.483 24.7122 60.9972 22.4422 61.0432 20.1517C60.9942 17.8648 61.4802 15.5981 62.4625 13.5323V13.5323ZM77.7934 15.7714C77.3132 15.2495 76.7282 14.8347 76.0767 14.5543C75.4252 14.2739 74.7219 14.1341 74.0127 14.1441C73.3038 14.1331 72.6004 14.2699 71.9473 14.5459C71.2942 14.8219 70.7059 15.2309 70.2197 15.7469C69.6809 16.341 69.2659 17.0365 68.9991 17.7928C68.7323 18.5491 68.619 19.351 68.6658 20.1517C68.6188 20.9579 68.732 21.7655 68.9987 22.5278C69.2654 23.2901 69.6804 23.992 70.2197 24.5931C70.705 25.1114 71.2914 25.5245 71.9428 25.8069C72.5942 26.0894 73.2966 26.2351 74.0066 26.2351C74.7165 26.2351 75.4189 26.0894 76.0703 25.8069C76.7217 25.5245 77.3081 25.1114 77.7934 24.5931C78.3319 23.9959 78.7475 23.2985 79.0162 22.5405C79.2849 21.7826 79.4016 20.9792 79.3595 20.1762C79.4412 18.5585 78.878 16.9744 77.7934 15.7714V15.7714Z" fill="white"/>
<path d="M92.2189 13.5323C93.0751 11.7372 94.4192 10.2192 96.0975 9.15207C97.7372 8.13063 99.6351 7.59992 101.567 7.62265C103.094 7.60306 104.604 7.94696 105.972 8.62595C107.236 9.24046 108.316 10.1773 109.104 11.3422V0H116.592V32.4238H109.104V28.9122C108.382 30.105 107.345 31.0748 106.106 31.7141C104.706 32.4424 103.144 32.8044 101.567 32.7664C99.6312 32.7923 97.7303 32.2522 96.0975 31.2125C94.4144 30.1296 93.0702 28.5946 92.2189 26.7833C91.2306 24.7148 90.7403 22.4437 90.7874 20.1517C90.7381 17.8634 91.2285 15.5957 92.2189 13.5323V13.5323ZM107.55 15.7714C107.059 15.2607 106.47 14.8544 105.818 14.5769C105.166 14.2993 104.465 14.1563 103.757 14.1563C103.049 14.1563 102.347 14.2993 101.696 14.5769C101.044 14.8544 100.455 15.2607 99.9639 15.7714C98.8838 16.9764 98.3251 18.5602 98.41 20.1762C98.3259 21.8031 98.8839 23.398 99.9639 24.6176C100.451 25.1346 101.039 25.5465 101.691 25.828C102.344 26.1096 103.046 26.2548 103.757 26.2548C104.467 26.2548 105.17 26.1096 105.823 25.828C106.475 25.5465 107.063 25.1346 107.55 24.6176C108.086 24.0195 108.5 23.3215 108.766 22.5637C109.033 21.8058 109.147 21.0028 109.104 20.2006C109.149 19.3964 109.035 18.5911 108.769 17.8311C108.502 17.071 108.088 16.371 107.55 15.7714V15.7714Z" fill="white"/>
<path d="M129.525 0V32.4238H122.024V0H129.525Z" fill="white"/>
<path d="M157.862 21.987H140.916C140.935 23.2956 141.461 24.5457 142.384 25.4741C142.806 25.8765 143.303 26.1918 143.847 26.4017C144.39 26.6117 144.97 26.7122 145.553 26.6976C146.368 26.7575 147.182 26.5624 147.881 26.1393C148.58 25.7162 149.131 25.086 149.456 24.3362H157.434C157.019 25.9516 156.243 27.4517 155.164 28.7234C154.086 29.9951 152.732 31.0052 151.206 31.6774C149.509 32.4202 147.674 32.7915 145.822 32.7664C143.594 32.8053 141.393 32.2791 139.423 31.2369C137.571 30.2294 136.05 28.7083 135.043 26.8567C133.955 24.81 133.411 22.5179 133.464 20.2006C133.408 17.882 133.943 15.5873 135.018 13.5323C136.016 11.682 137.529 10.1605 139.374 9.15208C141.36 8.10738 143.578 7.5813 145.822 7.62265C148.015 7.57781 150.184 8.09149 152.123 9.11537C153.943 10.0843 155.443 11.5588 156.442 13.361C157.514 15.3337 158.05 17.5527 157.996 19.7969C157.999 20.529 157.954 21.2606 157.862 21.987V21.987ZM150.325 17.827C150.352 17.2514 150.248 16.6772 150.021 16.1474C149.794 15.6177 149.451 15.1461 149.016 14.7681C148.105 13.9873 146.935 13.5768 145.737 13.618C144.577 13.5818 143.444 13.9738 142.555 14.7192C141.657 15.5224 141.086 16.629 140.952 17.827H150.325Z" fill="white"/>
</svg>
