<svg width="40" height="40" viewBox="0 0 40 40" fill="none" xmlns="http://www.w3.org/2000/svg">
<path d="M20.0022 14.8723C17.1645 14.8723 14.8756 17.1617 14.8756 20C14.8756 22.8383 17.1645 25.1277 20.0022 25.1277C22.8399 25.1277 25.1288 22.8383 25.1288 20C25.1288 17.1617 22.8399 14.8723 20.0022 14.8723ZM20.0022 23.3337C18.1684 23.3337 16.6693 21.8387 16.6693 20C16.6693 18.1613 18.164 16.6663 20.0022 16.6663C21.8405 16.6663 23.3352 18.1613 23.3352 20C23.3352 21.8387 21.836 23.3337 20.0022 23.3337V23.3337ZM26.5343 14.6625C26.5343 15.3275 25.9989 15.8585 25.3385 15.8585C24.6737 15.8585 24.1428 15.323 24.1428 14.6625C24.1428 14.002 24.6782 13.4665 25.3385 13.4665C25.9989 13.4665 26.5343 14.002 26.5343 14.6625ZM29.9297 15.8764C29.8539 14.2742 29.488 12.8551 28.3146 11.6858C27.1456 10.5166 25.7267 10.1506 24.1249 10.0703C22.4741 9.97657 17.5259 9.97657 15.8751 10.0703C14.2777 10.1462 12.8589 10.5121 11.6854 11.6814C10.512 12.8506 10.1506 14.2698 10.0703 15.8719C9.97658 17.5232 9.97658 22.4724 10.0703 24.1236C10.1461 25.7258 10.512 27.1449 11.6854 28.3142C12.8589 29.4834 14.2733 29.8494 15.8751 29.9297C17.5259 30.0234 22.4741 30.0234 24.1249 29.9297C25.7267 29.8538 27.1456 29.4879 28.3146 28.3142C29.4835 27.1449 29.8494 25.7258 29.9297 24.1236C30.0234 22.4724 30.0234 17.5276 29.9297 15.8764V15.8764ZM27.797 25.8953C27.449 26.7701 26.7752 27.4439 25.8963 27.7965C24.58 28.3186 21.4568 28.1981 20.0022 28.1981C18.5477 28.1981 15.42 28.3142 14.1082 27.7965C13.2337 27.4484 12.56 26.7745 12.2075 25.8953C11.6854 24.5788 11.8059 21.4549 11.8059 20C11.8059 18.5451 11.6899 15.4167 12.2075 14.1047C12.5555 13.2299 13.2292 12.5561 14.1082 12.2035C15.4244 11.6814 18.5477 11.8019 20.0022 11.8019C21.4568 11.8019 24.5845 11.6858 25.8963 12.2035C26.7708 12.5516 27.4445 13.2255 27.797 14.1047C28.319 15.4212 28.1985 18.5451 28.1985 20C28.1985 21.4549 28.319 24.5833 27.797 25.8953Z" fill="white"/>
<circle cx="20" cy="20" r="19.25" stroke="white" stroke-width="1.5"/>
</svg>
