<svg id="instagram" xmlns="http://www.w3.org/2000/svg" viewBox="0 0 40 40"><defs><style>.cls-1{fill:#1d2021}</style></defs><path class="cls-1" d="M32.05.69H8A7.29 7.29 0 0 0 .69 8v24.1A7.29 7.29 0 0 0 8 39.31h24.1a7.29 7.29 0 0 0 7.26-7.26V8A7.29 7.29 0 0 0 32.05.69Zm-.72 24.1a6.58 6.58 0 0 1-.92 3.38 5.66 5.66 0 0 1-3.22 2.51 12.58 12.58 0 0 1-3.86.43H15.9a7.5 7.5 0 0 1-3.71-.88 5.63 5.63 0 0 1-2.69-3.37 11.54 11.54 0 0 1-.41-3v-8.09a7.36 7.36 0 0 1 1.07-4.06 5.79 5.79 0 0 1 3.08-2.35 12.21 12.21 0 0 1 3.9-.43h7.57a7.06 7.06 0 0 1 4 1.11 5.5 5.5 0 0 1 2.45 3.77 18.08 18.08 0 0 1 .25 2.85c-.01 2.7-.04 5.42-.08 8.13Z"/><path d="M20.26 14.29A5.72 5.72 0 1 0 26 20a5.7 5.7 0 0 0-5.74-5.71Zm0 9.41a3.69 3.69 0 1 1 3.66-3.65 3.69 3.69 0 0 1-3.64 3.65Zm5.94-10.98a1.38 1.38 0 0 0-1.37 1.36 1.37 1.37 0 0 0 2.73 0 1.36 1.36 0 0 0-1.36-1.36Z" style="fill:none"/><path class="cls-1" d="M20.25 16.32a3.69 3.69 0 1 0 3.69 3.73 3.72 3.72 0 0 0-3.69-3.73Z"/><path class="cls-1" d="M29.21 14.54A3.84 3.84 0 0 0 28 12a4.32 4.32 0 0 0-2.9-1c-2.71-.05-5.43-.09-8.14-.07a9.74 9.74 0 0 0-3 .32 3.67 3.67 0 0 0-2.67 3.35c-.16 1.95-.14 9.58 0 10.84a3.79 3.79 0 0 0 1.46 2.71 4.88 4.88 0 0 0 2.95.91 85.73 85.73 0 0 0 10-.11 3.94 3.94 0 0 0 2-.78 4.16 4.16 0 0 0 1.59-3.44v-7.5c.05-.91.01-1.81-.08-2.69Zm-9 11.19A5.72 5.72 0 1 1 26 20a5.74 5.74 0 0 1-5.79 5.73Zm6-10.34a1.32 1.32 0 0 1-1.36-1.31 1.37 1.37 0 1 1 2.73 0 1.31 1.31 0 0 1-1.39 1.31Z"/></svg>