<svg id="Layer_1" data-name="Layer 1" xmlns="http://www.w3.org/2000/svg" viewBox="0 0 200 32"><defs><style>.cls-1{fill:#ff52c1;}</style></defs><path d="M74.76,4V29.11H68.63V18.76H59.11V29.11H53V4h6.12v9.85h9.52V4Z"/><path d="M98.89,9.12v20H92.77V26.38a6.66,6.66,0,0,1-2.53,2.14,7.75,7.75,0,0,1-3.52.8,7.91,7.91,0,0,1-4-1A6.89,6.89,0,0,1,80,25.35a10.13,10.13,0,0,1-1-4.55V9.12h6.09V20a4.4,4.4,0,0,0,1,3.12A3.63,3.63,0,0,0,88.9,24.2a3.69,3.69,0,0,0,2.83-1.11,4.4,4.4,0,0,0,1-3.12V9.12Z"/><path d="M103.24,13.67a8.73,8.73,0,0,1,3.17-3.58,8.33,8.33,0,0,1,4.48-1.25,7.87,7.87,0,0,1,3.6.82,6.61,6.61,0,0,1,2.56,2.22V2.61h6.12v26.5h-6.12V26.24a6.19,6.19,0,0,1-2.46,2.29,7.58,7.58,0,0,1-3.7.86,8.18,8.18,0,0,1-4.48-1.27,8.78,8.78,0,0,1-3.17-3.62,12.11,12.11,0,0,1-1.16-5.42A12,12,0,0,1,103.24,13.67Zm12.53,1.83a4.12,4.12,0,0,0-3.09-1.33,4.17,4.17,0,0,0-3.1,1.31,4.93,4.93,0,0,0-1.27,3.6,5,5,0,0,0,1.27,3.63,4.24,4.24,0,0,0,6.19,0,5,5,0,0,0,1.28-3.61A5,5,0,0,0,115.77,15.5Z"/><path d="M127.56,13.67a8.66,8.66,0,0,1,3.17-3.58,8.27,8.27,0,0,1,4.47-1.25,7.87,7.87,0,0,1,3.6.82,6.54,6.54,0,0,1,2.56,2.22V2.61h6.12v26.5h-6.12V26.24a6.17,6.17,0,0,1-2.45,2.29,7.64,7.64,0,0,1-3.71.86,8.12,8.12,0,0,1-4.47-1.27,8.71,8.71,0,0,1-3.17-3.62,12,12,0,0,1-1.17-5.42A11.91,11.91,0,0,1,127.56,13.67Zm12.53,1.83a4.3,4.3,0,0,0-6.2,0,5,5,0,0,0-1.27,3.6,5.08,5.08,0,0,0,1.27,3.63,4.26,4.26,0,0,0,6.2,0,5,5,0,0,0,1.27-3.61A5,5,0,0,0,140.09,15.5Z"/><path d="M158.05,2.61v26.5h-6.13V2.61Z"/><path d="M181.21,20.58H167.36a4.13,4.13,0,0,0,1.2,2.85,3.62,3.62,0,0,0,2.59,1,3.22,3.22,0,0,0,3.19-1.93h6.52a9,9,0,0,1-5.09,6,10.61,10.61,0,0,1-4.4.89,10.78,10.78,0,0,1-5.23-1.25,8.94,8.94,0,0,1-3.58-3.58,11.05,11.05,0,0,1-1.29-5.44,11.17,11.17,0,0,1,1.27-5.45,8.89,8.89,0,0,1,3.56-3.58,10.89,10.89,0,0,1,5.27-1.25,10.57,10.57,0,0,1,5.15,1.22,8.73,8.73,0,0,1,3.53,3.47,10.5,10.5,0,0,1,1.27,5.26A13.86,13.86,0,0,1,181.21,20.58Zm-6.16-3.4a3.12,3.12,0,0,0-1.07-2.5,3.91,3.91,0,0,0-2.68-.94,3.86,3.86,0,0,0-2.6.9,4,4,0,0,0-1.31,2.54Z"/><path class="cls-1" d="M20.11,3.47H42.62A1.43,1.43,0,0,1,44.05,4.9V28.53L39,23.45H20.11A1.44,1.44,0,0,1,18.68,22V4.9A1.43,1.43,0,0,1,20.11,3.47ZM38.66,15.88a2.16,2.16,0,1,0-2.16-2.16A2.16,2.16,0,0,0,38.66,15.88Zm-7,0a2.16,2.16,0,1,0-2.16-2.16A2.16,2.16,0,0,0,31.64,15.88Zm-7,0a2.16,2.16,0,1,0-2.16-2.16A2.16,2.16,0,0,0,24.62,15.88Z"/></svg>