<svg width="40" height="40" viewBox="0 0 40 40" fill="none" xmlns="http://www.w3.org/2000/svg">
<path d="M27.9442 15.4859C27.9569 15.6828 27.9569 15.8797 27.9569 16.0765C27.9569 22.0812 23.8325 29 16.2944 29C13.9721 29 11.8147 28.2547 10 26.961C10.33 27.0031 10.6472 27.0172 10.9898 27.0172C12.9061 27.0172 14.6701 26.3 16.0787 25.0766C14.2767 25.0344 12.7665 23.7266 12.2462 21.9265C12.5 21.9687 12.7538 21.9969 13.0203 21.9969C13.3883 21.9969 13.7564 21.9406 14.099 21.8422C12.2208 21.4203 10.8122 19.5922 10.8122 17.3844V17.3281C11.3578 17.6656 11.9924 17.8766 12.6649 17.9047C11.5609 17.089 10.8375 15.6969 10.8375 14.1218C10.8375 13.2781 11.0406 12.5047 11.3959 11.8297C13.4137 14.5859 16.4467 16.3859 19.8477 16.5828C19.7843 16.2453 19.7462 15.8937 19.7462 15.5422C19.7462 13.039 21.5736 11 23.8451 11C25.0253 11 26.0913 11.5484 26.8401 12.4344C27.7665 12.2375 28.6548 11.8578 29.4417 11.3375C29.1371 12.3922 28.4899 13.2782 27.6396 13.8406C28.4645 13.7422 29.264 13.489 30 13.1375C29.4417 14.0375 28.7437 14.839 27.9442 15.4859Z" fill="white"/>
<circle cx="20" cy="20" r="19.25" stroke="white" stroke-width="1.5"/>
</svg>
