<svg xmlns="http://www.w3.org/2000/svg" viewBox="0 0 40 40"><path d="M32.05.69H8A7.29 7.29 0 0 0 .69 8v24.1A7.29 7.29 0 0 0 8 39.31h24.1a7.29 7.29 0 0 0 7.26-7.26V8A7.29 7.29 0 0 0 32.05.69Zm-3 14.49c0 .51-.2 1.7-.17 1.78a14.31 14.31 0 0 1-5.57 10C16.64 31.54 9 27.28 9 27.28a9.62 9.62 0 0 0 6.3-1.94 4.85 4.85 0 0 1-4.23-3.19l1.83-.08a4.75 4.75 0 0 1-3.43-4.59l1.83.5a.37.37 0 0 1 0-.11 11.41 11.41 0 0 1-.92-.92 4.57 4.57 0 0 1-.81-4 4 4 0 0 1 .59-1.15c.1.13.6.79.77 1a11.11 11.11 0 0 0 3.25 2.39 13.72 13.72 0 0 0 5 1.46h.31v-.81a4.45 4.45 0 0 1 1.46-3.62A4.5 4.5 0 0 1 25.11 11a4.23 4.23 0 0 1 2.32 1.17c.32.31.64.12.93 0 .73-.24 1.44-.54 2.19-.84a4.42 4.42 0 0 1-1.75 2.36 11.18 11.18 0 0 0 2.33-.46 8.4 8.4 0 0 1-2.05 1.95Z" style="fill:#1d2021"/></svg>